<?xml version="1.0" standalone="no"?>
<!DOCTYPE svg PUBLIC "-//W3C//DTD SVG 20010904//EN"
 "http://www.w3.org/TR/2001/REC-SVG-20010904/DTD/svg10.dtd">
<svg version="1.0" xmlns="http://www.w3.org/2000/svg"
 width="500.000000pt" height="149.000000pt" viewBox="0 0 500.000000 149.000000"
 preserveAspectRatio="xMidYMid meet">

<g transform="translate(0.000000,149.000000) scale(0.100000,-0.100000)"
fill="#000000" stroke="none">
<path d="M0 745 l0 -745 2500 0 2500 0 0 745 0 745 -2500 0 -2500 0 0 -745z
m1233 635 c76 -29 130 -79 169 -157 28 -57 32 -77 32 -138 -1 -88 -29 -154
-103 -239 -51 -61 -55 -70 -66 -179 -11 -112 -74 -232 -158 -298 -41 -33 -52
-37 -69 -28 -28 15 -65 3 -85 -29 -23 -36 -32 -42 -68 -42 -60 -1 -75 -10 -75
-46 0 -18 7 -65 15 -104 8 -40 13 -75 10 -80 -3 -4 -41 -11 -84 -15 l-79 -7
-59 40 c-155 105 -263 285 -263 437 0 62 22 150 55 218 l24 51 -33 36 c-45 50
-53 99 -27 153 12 23 36 52 54 65 65 44 166 20 205 -48 14 -24 21 -28 42 -22
14 4 53 6 87 6 75 -2 138 -30 187 -84 l36 -40 35 17 35 17 -36 30 c-65 53 -81
128 -41 187 32 48 83 79 128 79 22 0 39 2 39 5 0 3 -9 23 -20 45 -26 52 -73
104 -116 131 -40 24 -39 26 13 44 57 21 153 18 216 -5z m-419 -71 c43 -33 35
-99 -15 -125 -55 -28 -109 8 -109 72 0 37 38 74 75 74 12 0 34 -9 49 -21z
m4043 -845 c-3 -3 -12 -4 -19 -1 -8 3 -5 6 6 6 11 1 17 -2 13 -5z m-1490 -342
c-1 -42 -3 -7 -3 78 0 85 2 120 3 78 2 -43 2 -113 0 -156z m249 -79 c-4 -9
-22 -12 -58 -11 l-53 2 53 3 52 4 2 122 2 122 3 -114 c2 -63 1 -121 -1 -128z
m-1788 -10 c-15 -2 -42 -2 -60 0 -18 2 -6 4 27 4 33 0 48 -2 33 -4z m435 0
c-18 -2 -48 -2 -65 0 -18 2 -4 4 32 4 36 0 50 -2 33 -4z m270 0 c-13 -2 -35
-2 -50 0 -16 2 -5 4 22 4 28 0 40 -2 28 -4z m805 0 c-16 -2 -40 -2 -55 0 -16
2 -3 4 27 4 30 0 43 -2 28 -4z"/>
</g>
</svg>
